<?xml version="1.0" encoding="UTF-8"?>
<svg width="20px" height="20px" viewBox="0 0 20 20" version="1.1" xmlns="http://www.w3.org/2000/svg" xmlns:xlink="http://www.w3.org/1999/xlink">
    <title>Combined Shape</title>
    <g id="Page-1" stroke="none" stroke-width="1" fill="none" fill-rule="evenodd" stroke-linecap="round" stroke-linejoin="round">
        <g id="1" transform="translate(-104.000000, -742.000000)" stroke="#4B5664" stroke-width="2">
            <g id="Group-2" transform="translate(0.000000, 722.000000)">
                <g id="Group" transform="translate(105.000000, 21.000000)">
                    <path d="M11.8171,1.16689 C13.3729,2.72274 13.3729,5.24527 11.8171,6.80112 C10.2612,8.357 7.7387,8.357 6.18287,6.80112 C4.62702,5.24527 4.62702,2.72274 6.18287,1.16689 C7.7387,-0.38896 10.2612,-0.38896 11.8171,1.16689 Z M9,11.008 C13.554,11.008 18,12.975 18,16 L18,17 C18,17.552 17.552,18 17,18 L1,18 C0.448,18 0,17.552 0,17 L0,16 C0,12.974 4.446,11.008 9,11.008 Z" id="Combined-Shape"></path>
                </g>
            </g>
        </g>
    </g>
</svg>